<svg xmlns="http://www.w3.org/2000/svg" viewBox="0 0 22 45"><title>FlechaRazas</title><g id="Capa_2" data-name="Capa 2"><g id="Capa_1-2" data-name="Capa 1"><path d="M20.05125,45a1.97153,1.97153,0,0,0,1.37563-.54366,1.832,1.832,0,0,0,.01124-2.65117l-.01123-.01087L5.59736,26.47813a5.49587,5.49587,0,0,1,0-7.94864L21.4269,3.21337a1.83948,1.83948,0,0,0,0-2.662,1.99186,1.99186,0,0,0-2.75128,0L2.8461,15.86745a9.15992,9.15992,0,0,0-.01733,13.256l.01732.01676L18.67561,44.45631A1.97157,1.97157,0,0,0,20.05125,45Z" fill="#fff"/></g></g></svg>