<svg xmlns="http://www.w3.org/2000/svg" viewBox="0 0 610 235"><title>BtnDiscord_1</title><g id="Capa_2" data-name="Capa 2"><g id="Capa_1-2" data-name="Capa 1"><rect width="610" height="235" rx="42.84808" fill="#5c6bc0"/><path d="M187.78957,79.28549c-17.7862-12.72571-34.35915-13.25474-37.52533-13.32077l-2.02116,1.91246c22.70384,6.33043,33.68532,16.22207,33.68532,16.22207A126.59092,126.59092,0,0,0,128.166,71.21587a126.61308,126.61308,0,0,0-53.762,12.88338s10.98148-9.89164,33.68571-16.22207l-2.02155-1.91246c-3.16618.066-19.73953.59347-37.52534,13.32077,0,0-19.87438,33.2357-19.87438,74.05479.67345-.79115,12.32878,17.54107,42.37634,18.20056,0,0,5.05287-5.60531,8.69063-10.55113-17.51651-4.94582-24.11856-14.83705-24.11856-14.83705C93.82734,157.3805,110.83656,161.70043,128.166,161.139c17.32949.56025,34.33869-3.75848,52.54912-14.98632,0,0-6.602,9.89124-24.12056,14.83705,3.63815,4.94582,8.691,10.55113,8.691,10.55113,30.04716-.6595,41.70249-18.99172,42.37594-18.20056.002-40.8191-19.872-74.0548-19.872-74.0548Zm-84.08082,61.26186a14.11409,14.11409,0,0,1,0-28.22425v.066a14.08057,14.08057,0,0,1,.0016,28.15822Zm48.91136,0a14.08057,14.08057,0,0,1,0-28.15823v-.066a14.1141,14.1141,0,0,1,.00162,28.22424Z" fill="#fff"/><text transform="translate(237.98779 144.82908)" font-size="77.35596" fill="#fff" font-family="Montserrat-Bold, Montserrat" font-weight="700">Dis<tspan x="128.25436" y="0" letter-spacing="-0.00699em">c</tspan><tspan x="173.42993" y="0">o</tspan><tspan x="224.09836" y="0" letter-spacing="-0.009em">r</tspan><tspan x="256.7429" y="0">d</tspan></text></g></g></svg>