<svg xmlns="http://www.w3.org/2000/svg" viewBox="0 0 65 65"><title>IdiomaInicio-Vector</title><g id="Capa_2" data-name="Capa 2"><g id="TEXTS"><path d="M32.5,0A32.5,32.5,0,1,0,65,32.5,32.5,32.5,0,0,0,32.5,0ZM55.946,18.95833H47.209A53.28631,53.28631,0,0,0,39.54167,6.34292,27.19437,27.19437,0,0,1,55.946,18.95833ZM44.6875,32.5a27.64914,27.64914,0,0,1-1.281,8.125H21.59354a27.64914,27.64914,0,0,1-1.281-8.125,27.64914,27.64914,0,0,1,1.281-8.125H43.40646A27.64914,27.64914,0,0,1,44.6875,32.5ZM23.76292,46.04167H41.23708A52.98025,52.98025,0,0,1,32.5,58.4675,52.98046,52.98046,0,0,1,23.76292,46.04167Zm0-27.08334A52.98025,52.98025,0,0,1,32.5,6.5325a52.98025,52.98025,0,0,1,8.73708,12.42583ZM25.45833,6.34292A53.354,53.354,0,0,0,17.791,18.95833H9.054A27.19437,27.19437,0,0,1,25.45833,6.34292ZM6.6625,24.375h9.295a31.62259,31.62259,0,0,0,0,16.25H6.6625A27.11859,27.11859,0,0,1,6.6625,24.375ZM9.054,46.04167H17.791a53.28657,53.28657,0,0,0,7.66729,12.61542A27.19439,27.19439,0,0,1,9.054,46.04167ZM39.54167,58.65709A53.35424,53.35424,0,0,0,47.209,46.04167H55.946A27.19439,27.19439,0,0,1,39.54167,58.65709ZM58.3375,40.625h-9.295a31.62259,31.62259,0,0,0,0-16.25h9.295A27.11859,27.11859,0,0,1,58.3375,40.625Z" fill="#fff"/></g></g></svg>