<svg xmlns="http://www.w3.org/2000/svg" viewBox="0 0 60 60"><title>BtnArriba_1</title><g id="Capa_2" data-name="Capa 2"><g id="Capa_1-2" data-name="Capa 1"><path d="M29.99925,60A30,30,0,1,1,60,29.99952,30.00016,30.00016,0,0,1,29.99925,60Z" fill="#fff"/><path d="M40.86233,34.37792h0a1.89517,1.89517,0,0,1-2.68148,0L31.34,27.537a1.89762,1.89762,0,0,0-2.68148,0L21.819,34.37793a1.8952,1.8952,0,0,1-2.68149,0h0a1.8952,1.8952,0,0,1,0-2.68149l9.521-9.521a1.89519,1.89519,0,0,1,2.68148,0l9.52235,9.521A1.89763,1.89763,0,0,1,40.86233,34.37792Z" fill="#9dabc2"/></g></g></svg>